# xmcd CD database file
#
# Track frame offsets:
#	150
#	13610
#	26447
#	37912
#	51740
#	65915
#	76922
#	90340
#	102227
#	114052
#	126655
#	140145
#	150295
#	162485
#	174460
#	185945
#	199500
#	209842
#	221590
#	234570
#	246345
#	257440
#
# Disc length: 3623 seconds
#
# Revision: 2
# Processed by: cddbd v1.4b41PL1 Copyright (c) Steve Scherf et al.
# Submitted via: Feurio! 1.52 - http://www.feurio.com
#
DISCID=3d0e2516
DTITLE=Various Artist - Rythm and Blues All Stars Vol 3 - Jump And Shout
DYEAR=1900
DGENRE=
TTITLE0=Jack McVie and His All Stars - Frantic Boogie
TTITLE1=Louis Jordan and his Tympany Five - All For The Love Of Lil
TTITLE2=Saunders King and His Rythm - 2:00 AM Hop
TTITLE3=T-Bone Walker - T-Bone Boogie
TTITLE4=Tom Archia and His All Stars - Ice Man Blues
TTITLE5=Joe Lutcher and His Society Cats - Rockin' Boogie
TTITLE6=Gene Phillips and His Rythm Aces - Big Legs
TTITLE7=Jesse Price and His Blues Band - Frettin' For Some Pettin'
TTITLE8=Jimmy Liggins and His Drops Of Joy - Cadillac Boogie
TTITLE9=Rabon Tarrant With Jack McVie and His Orchestra - Two Timin' Baby
TTITLE10=Roy Milton and His Solid Senders - Everything I Do Is Wrong
TTITLE11=Calvin Boze and His All Stars - Working With My Baby
TTITLE12=T.J. Fowler and His Orchestra - Harmony Grits
TTITLE13=Eddie 'Sugarman' Penigar - Easy Baby
TTITLE14=Jimmy Preston and The Prestonians - Number Blues
TTITLE15=Dave Bartholomew and His Sextett - Girl Town Blues
TTITLE16=Erline Harris With The Johnson Brothers Combo  - Jump And Shout
TTITLE17=Sonny Thompson and His Orchestra - The Fish
TTITLE18=Big John Greer and His Rythm Rockers - If I Told You Once
TTITLE19=John Houston and His Orchestra - Way Cross Mama
TTITLE20=Billy Wright and His Orchestra - Billy's Boogie Blues
TTITLE21=Goree Carter and His Hep Cats - She's Just Old Fashioned
EXTD=
EXTT0=
EXTT1=
EXTT2=
EXTT3=
EXTT4=
EXTT5=
EXTT6=
EXTT7=
EXTT8=
EXTT9=
EXTT10=
EXTT11=
EXTT12=
EXTT13=
EXTT14=
EXTT15=
EXTT16=
EXTT17=
EXTT18=
EXTT19=
EXTT20=
EXTT21=
PLAYORDER=
